<?xml version="1.0" encoding="utf-8"?>
<!-- Uploaded to SVGRepo https://www.svgrepo.com -->
<!DOCTYPE svg PUBLIC "-//W3C//DTD SVG 1.1//EN" "http://www.w3.org/Graphics/SVG/1.1/DTD/svg11.dtd">
<svg width="1000px" height="1000px" viewBox="0 0 1000 1000" version="1.1" xmlns="http://www.w3.org/2000/svg" xmlns:xlink="http://www.w3.org/1999/xlink" x="0px" y="0px" enable-background="new 0 0 1000 1000" xml:space="preserve">

<g><g transform="translate(0.000000,443.000000) scale(0.100000,-0.100000)"><path d="M159.3,3616.1c-32.5-32.5-59.3-78.5-59.3-103.4c0-51.7,44-122.5,95.7-149.3c67-36.4,1456.6-112.9,2794.5-155c874.7-26.8,3190.7-26.8,4029.1,0c1370.5,44,2708.4,118.7,2790.7,157c45.9,21.1,90,90,90,141.6c0,55.5-45.9,122.5-95.7,143.6c-40.2,17.2-124.4,17.2-329.2,1.9C7457.7,3503.2,4288,3468.7,1918.4,3574c-472.8,21.1-1303.5,68.9-1554.2,90C218.7,3675.5,216.8,3673.6,159.3,3616.1z"/><path d="M184.2,2996c-42.1-19.1-84.2-90-84.2-139.7c0-45.9,38.3-114.8,76.6-139.7c24.9-15.3,612.5-45.9,1868.1-99.5c1006.8-42.1,1864.3-76.6,1904.5-76.6c63.2,0,74.6-5.7,74.6-38.3c0-23,21.1-61.3,47.9-86.1l45.9-47.9H5000h882.4l45.9,47.9c26.8,24.9,47.9,59.3,47.9,74.6c0,17.2,23,32.5,63.2,38.3c32.5,5.7,890,44,1902.6,86.1c1309.2,55.5,1854.7,84.2,1881.5,101.5c93.8,59.3,93.8,197.1,0,268c-47.9,34.4-88,34.4-2048-47.9c-1416.4-59.3-2013.6-90-2044.2-107.2c-24.9-13.4-53.6-49.8-65.1-80.4l-19.1-55.5h-647h-646.9l-23,57.4c-13.4,32.5-42.1,68.9-65.1,80.4c-26.8,13.4-729.3,51.7-1992.5,103.4C71.3,3028.5,237.8,3022.8,184.2,2996z"/><path d="M1156.6,2182.5c-42.1-17.2-84.2-120.6-70.8-178c19.1-90,68.9-116.8,271.8-143.6c162.7-23,893.9-86.1,987.6-86.1c30.6,0,32.5-34.4,32.5-440.2V894.3h-438.3h-438.3l-51.7-61.3c-61.3-72.7-55.5-155,21.1-220.1c45.9-42.1,59.3-44,478.5-44h428.8V325.9c0-195.2,7.7-258.4,34.4-312c63.2-126.3,212.5-126.3,275.6,0c26.8,53.6,34.4,116.8,34.4,312v243.1H2885h162.7V291.4c0-271.8,1.9-281.4,47.9-325.4c59.3-61.3,143.6-61.3,214.4-1.9c53.6,45.9,53.6,45.9,59.3,325.4l5.7,279.5h1625h1625l5.7-279.5c5.7-279.5,5.7-279.5,59.3-325.4c70.8-59.3,155-59.3,214.4,1.9c45.9,44,47.9,53.6,47.9,325.4v277.5h160.8h160.8l7.7-279.5c5.7-279.5,5.7-279.5,59.3-325.4c57.4-49.8,126.3-59.3,189.5-24.9c68.9,36.4,91.9,132.1,91.9,390.5v239.3H8051c419.2,0,432.6,1.9,478.5,44c76.6,65.1,82.3,147.4,21,220.1l-51.7,61.3h-438.3h-438.3v446v446l369.4,24.9c593.4,38.3,830.7,67,872.8,105.3c86.1,78.5,55.5,246.9-47.9,271.8c-26.8,7.7-214.4-1.9-415.4-19.1c-472.8-40.2-821.1-61.3-1448.9-91.9c-685.2-32.5-3541-32.5-4153.5,0c-526.4,28.7-1158,74.7-1349.4,99.5C1303.9,2195.9,1194.8,2197.8,1156.6,2182.5z M7277.7,1334.6V894.3H7115h-162.7V1325v428.8l139.7,7.7c74.6,1.9,149.3,7.7,162.7,9.6C7272,1774.8,7277.7,1675.3,7277.7,1334.6z M2976.8,1744.2l70.8-13.4l-3.8-413.4l-5.7-413.4l-157-5.7l-158.9-5.7V1325v430.7h91.9C2863.9,1755.7,2936.6,1749.9,2976.8,1744.2z M4020,1717.4h329.2v-411.5V894.3h-488.1H3373v423v424.9l158.9-11.5C3618,1723.1,3838.2,1717.4,4020,1717.4z M6627,1315.4V894.3h-488.1h-488.1v411.5v409.6l225.9,7.7c122.5,1.9,342.6,7.7,488.1,9.6l262.2,3.8V1315.4z M5325.4,1305.9V894.3H5000h-325.4v411.5v411.5H5000h325.4V1305.9z"/><path d="M2117.4-453.2c-40.2-34.5-53.6-61.3-53.6-116.8c0-107.2,72.7-162.7,210.5-162.7h103.4v-357.9c0-539.8-51.7-1805-120.6-3001.3l-23-382.8l-1014.5-9.6c-558.9-5.7-1027.9-17.2-1045.1-24.9c-36.4-19.1-74.6-93.8-74.6-149.3c0-21.1,24.9-65.1,55.5-95.7l55.5-55.5h4789h4789l55.5,55.5c80.4,82.3,65.1,202.9-34.4,248.8c-30.6,15.3-352.2,21.1-1041.2,21.1c-779,0-995.3,5.7-1003,24.9c-7.7,26.8-55.5,893.9-95.7,1783.9c-17.2,336.9-34.5,911.1-42.1,1278.6l-11.5,664.2h107.2c84.2,0,118.7,9.6,158.9,45.9c74.7,63.2,74.7,170.3,0,233.5l-51.7,45.9h-706.3h-706.3l-51.7-45.9c-74.7-63.2-74.7-170.3,0-233.5c40.2-36.4,74.6-45.9,156.9-45.9H6627v-300.5c0-325.4-26.8-1146.5-57.4-1795.4c-42.1-869-78.5-1535.1-88-1592.5l-9.6-63.2H5000H3528.1l-9.6,63.2c-28.7,178-122.5,2243.3-139.7,3052.9l-11.5,635.5h107.2c84.2,0,118.7,9.6,158.9,45.9c74.6,63.2,74.6,170.3,0,233.5l-51.7,45.9h-706.3h-706.3L2117.4-453.2z M3047.7-1081c0-518.7,55.5-1889.2,120.6-3016.6l23-386.7h-313.9h-313.9l11.5,225.9c88.1,1581,107.2,2071,120.6,2817.5c5.7,363.7,13.4,671.9,19.1,685.3c3.8,15.3,55.5,22.9,170.4,22.9h162.7V-1081z M7285.4-774.7c5.7-24.9,13.4-333.1,19.1-685.3c11.5-645,45.9-1489.1,97.6-2392.6c15.3-268,28.7-520.6,28.7-558.9v-72.7h-312h-310.1l23,388.6c63.2,1102.5,120.6,2517,120.6,3024.2v338.8H7115C7268.2-732.6,7277.7-734.5,7285.4-774.7z"/></g></g>
</svg>