<?xml version="1.0" encoding="utf-8"?>
<!-- Uploaded to SVGRepo https://www.svgrepo.com -->
<!DOCTYPE svg PUBLIC "-//W3C//DTD SVG 1.1//EN" "http://www.w3.org/Graphics/SVG/1.1/DTD/svg11.dtd">
<svg width="1000px" height="1000px" viewBox="0 0 1000 1000" version="1.1" xmlns="http://www.w3.org/2000/svg" xmlns:xlink="http://www.w3.org/1999/xlink" x="0px" y="0px" enable-background="new 0 0 1000 1000" xml:space="preserve">

<g><g transform="translate(0.000000,409.000000) scale(0.100000,-0.100000)"><path d="M4890.9,2958.1l-53.6-45.9l-5.7-555l-5.8-555l-51.7-13.4c-105.3-24.9-520.6-239.2-713.9-369.4c-445.9-298.6-740.7-652.7-830.6-1001c-72.7-275.6,21.1-779,176.1-939.8l51.7-53.6H5000h1542.6l51.7,53.6c143.5,151.2,241.2,618.2,185.7,893.8c-70.8,356-375.1,733-840.2,1046.9c-193.3,128.2-606.7,344.5-713.9,369.4l-51.7,13.4l-5.7,555l-5.7,555l-53.6,45.9c-30.6,24.9-78.5,45.9-109.1,45.9C4969.4,3004,4921.5,2983,4890.9,2958.1z M5143.5,1472.9C5790.5,1216.4,6334,753.2,6446.9,368.5c36.4-124.4,26.8-325.4-24.9-507.2l-30.6-111H5000H3608.5l-32.5,111c-49.8,181.8-59.3,380.9-23,505.3c86.1,298.6,449.8,666,911,920.6c109.1,59.3,503.4,241.2,530.2,243.1C4996.2,1530.3,5063.2,1505.4,5143.5,1472.9z"/><path d="M684,703.5c-72.7-38.3-86.1-76.6-86.1-229.7V326.4L364.4,167.5C113.7-2.8,75.4-48.7,111.8-148.3c9.6-32.5,45.9-67,90-88l70.8-36.4v-352.2c0-350.3,0-354.1,47.8-400c59.3-61.3,143.5-61.3,214.4-1.9l53.6,45.9l9.6,461.3l9.6,461.3L684-12.4l74.6,45.9L841-21.9l82.3-57.4v-449.8v-449.8l47.8-45.9c59.3-61.3,143.5-61.3,214.4-1.9l53.6,45.9l5.7,365.6c5.7,342.6,7.7,365.6,42.1,365.6c51.7,0,114.8,90,114.8,162.7c0,76.6-53.6,128.2-302.4,283.3L923.3,309.2v132.1c0,153.1-34.4,239.2-107.2,266C754.9,730.3,731.9,730.3,684,703.5z"/><path d="M9172.4,701.6c-68.9-34.5-95.7-103.4-95.7-252.6v-134l-176.1-114.8c-256.5-166.5-302.4-210.5-302.4-289c0-70.8,68.9-160.8,124.4-160.8c24.9,0,28.7-47.8,28.7-356v-356l55.5-55.5c72.7-70.8,156.9-74.7,222-7.7l47.9,45.9v449.8v449.8l82.3,57.4l82.3,55.5l80.4-49.8l78.5-51.7l5.7-455.5l5.7-457.4l53.6-45.9c70.8-59.4,155-59.4,214.4,1.9c47.9,45.9,47.9,49.8,47.9,400v352.2l70.8,36.4c44,21,80.4,55.5,90,88c36.3,99.5-1.9,145.5-252.6,315.8l-233.5,158.9V468c0,170.3-7.7,195.2-78.5,229.7C9258.5,732.2,9233.7,732.2,9172.4,701.6z"/><path d="M2806.6,48.9c-32.5-15.3-65.1-40.2-72.7-59.3c-5.7-17.2-11.5-162.7-11.5-323.5v-290.9l-145.5-93.8c-168.4-109.1-329.2-275.6-413.4-423l-57.4-103.4h-103.3h-103.4v93.8c0,130.1-26.8,189.5-97.6,220.1c-76.6,32.5-143.5,19.1-189.5-42.1c-38.3-45.9-38.3-82.3-38.3-1785.7v-1739.8h-162.7h-162.7v648.8c0,637.3,0,650.7,38.3,662.2c114.8,36.4,153.1,183.7,67,268l-45.9,47.8H751h-557l-45.9-47.8c-67-65.1-63.2-149.3,7.7-222c30.6-30.6,70.8-55.5,86.1-55.5c26.8,0,30.6-70.8,30.6-641.2v-639.3l-65.1-30.6c-114.8-55.5-139.7-172.3-51.7-260.3l55.5-55.5H5000h4788.7l55.5,55.5c88,88,63.2,212.4-53.6,254.6l-63.2,23v646.9c0,576.1,3.8,646.9,30.6,646.9c15.3,0,55.5,24.9,86.1,55.5c70.8,72.7,74.6,156.9,7.7,222l-45.9,47.8h-557h-557l-45.9-47.8c-86.1-84.2-47.8-231.6,67-268c38.3-11.5,38.3-24.9,38.3-662.2v-648.8h-162.7H8426v1739.8v1741.7l-42.1,47.8c-67,72.7-164.6,74.6-235.4,1.9c-40.2-38.3-47.8-65.1-47.8-162.7v-114.8h-103.4h-103.3l-57.4,101.4c-86.1,151.2-239.2,310.1-407.7,419.2l-151.2,97.6V-332c0,162.7-7.7,310.1-19.1,329.2c-30.6,59.3-124.4,88-191.4,59.3c-101.4-42.1-114.8-95.7-114.8-465.1c0-193.3,9.6-357.9,21-394.3c17.2-47.8,47.9-72.7,160.8-128.2c145.4-70.8,354.1-239.2,354.1-287.1c0-23-88-26.8-587.6-23l-589.5,5.7l-9.6,206.7c-9.6,189.5-13.4,212.5-55.5,245c-67,53.6-147.4,45.9-214.4-19.1l-55.5-55.5v-279.5c0-151.2,7.7-298.6,19.1-327.3c38.3-103.4,65.1-105.3,1129.2-105.3h976.1v-1464.2v-1464.2H8024h-76.6v325.4c0,371.3-15.3,438.3-112.9,476.6c-68.9,30.6-162.7,1.9-193.3-57.4c-11.5-19.1-19.1-193.3-19.1-388.5v-356h-172.3h-172.3v292.8c0,290.9,0,292.8-55.5,380.9c-82.3,128.2-325.4,302.4-423,302.4c-130.1,0-438.3-252.6-476.6-394.3c-11.5-40.2-21-189.5-21-327.3v-254.6h-162.7h-162.7v1268.9c0,1427.8,9.6,1330.2-151.2,1510.1c-153.1,172.3-679.5,474.7-824.9,474.7c-145.5,0-671.8-302.4-824.9-474.7c-160.8-179.9-151.2-82.3-151.2-1510.1v-1268.9h-162.7h-162.7v254.6c0,137.8-9.6,287.1-21.1,327.3c-38.3,141.6-346.4,394.3-476.6,394.3c-97.6,0-340.7-174.2-423-302.4c-55.5-88-55.5-90-55.5-380.9v-292.8h-172.3h-172.3v356c0,195.2-7.7,369.4-19.1,388.5c-30.6,59.3-124.4,88-191.4,59.3c-101.4-42.1-114.8-93.8-114.8-468.9v-334.9H1976h-76.6v1464.2v1464.2h976.1c1064.2,0,1091,1.9,1129.2,105.3c11.5,28.7,19.1,176.1,19.1,327.3v279.5l-55.5,55.5c-67,65.1-147.4,72.7-214.4,19.1c-42.1-32.5-45.9-55.5-55.5-245l-9.6-206.7l-587.6-5.7c-501.4-3.8-589.5,0-589.5,23c0,47.9,208.6,216.3,354.1,287.1c112.9,55.5,143.5,80.4,160.8,128.2c28.7,80.4,26.8,681.4,0,761.7c-11.5,34.5-45.9,72.7-76.6,88C2885.1,81.4,2881.2,81.4,2806.6,48.9z M5139.7-1639.2c153.1-76.6,405.8-250.7,461.3-315.8l49.8-59.3v-1242.1v-1242.2H5000h-650.7v1242.2c0,1226.8,0,1242.1,40.2,1291.9c84.2,107.2,516.8,375.1,606.7,375.1C5019.1-1589.5,5084.2-1612.4,5139.7-1639.2z M923.3-3847.9v-650.7H760.6H597.9v650.7v650.7h162.7h162.7V-3847.9z M9402.1-3847.9v-650.7h-162.7h-162.7v650.7v650.7h162.7h162.7V-3847.9z M3321.5-3960.8c51.7-47.8,51.7-49.8,51.7-292.8v-245h-162.7h-162.7v258.4v258.4l78.5,57.4C3212.4-3863.2,3212.4-3861.3,3321.5-3960.8z M6891-3937.9l61.3-45.9v-258.4v-256.5h-162.7h-162.7v246.9v246.9l78.5,68.9C6789.5-3865.1,6791.4-3865.1,6891-3937.9z"/><path d="M148.1-1292.8c-84.2-82.3-40.2-237.3,76.6-266l47.9-11.5v-524.4v-526.3l49.8-38.3c67-53.6,147.4-49.7,212.5,5.8l53.6,45.9l5.7,518.7l5.7,518.7h160.8h162.7v-516.8v-518.7l47.8-45.9c68.9-70.8,164.6-65.1,227.8,11.5l49.8,59.3v505.3c0,465.1,1.9,507.2,34.4,518.7c114.8,40.2,153.1,166.5,78.5,262.2l-38.3,49.8H758.7H194.1L148.1-1292.8z"/><path d="M8640.3-1289c-80.4-86.1-40.2-225.8,78.5-267.9c30.6-11.5,32.5-53.6,32.5-518.7v-505.3l49.8-59.3c63.2-76.6,158.9-82.3,227.8-11.5l47.9,45.9v518.7v516.8h162.7h160.8l5.7-518.7l5.7-518.7l53.6-45.9c65.1-55.5,145.5-59.3,212.5-5.8l49.8,38.3v526.3v524.4l47.9,11.5c116.7,28.7,160.8,183.8,76.6,266l-45.9,47.9h-562.7h-562.7L8640.3-1289z"/><path d="M3028.6-1964.6c-137.8-90-223.9-174.2-269.9-260.3c-32.5-63.2-36.4-114.8-36.4-474.6c0-375.1,1.9-403.8,38.3-440.2c86.1-86.1,214.4-63.2,258.4,47.9c21.1,47.9,28.7,151.2,28.7,400v334.9l70.8,57.4c40.2,32.5,76.6,59.3,82.3,59.3c7.7,0,47.8-30.6,91.9-68.9l80.4-68.9v-361.7c0-334.9,1.9-363.7,38.3-400c80.4-80.4,212.4-61.3,262.2,38.3c30.6,61.3,34.4,704.3,3.8,811.5c-24.9,91.9-147.4,225.8-292.8,321.5C3237.2-1872.7,3168.3-1872.7,3028.6-1964.6z"/><path d="M6615.4-1968.4c-145.5-95.7-268-229.7-292.9-321.5c-30.6-107.2-26.8-750.3,3.8-811.5c49.8-99.5,181.8-118.7,262.2-38.3c36.4,36.4,38.3,65.1,38.3,400v361.7l80.4,68.9c44,38.3,84.2,68.9,91.9,68.9c5.7,0,42.1-26.8,82.3-59.3l70.8-57.4v-348.3c0-310.1,3.8-354.1,36.4-409.6c45.9-74.6,128.2-97.6,208.6-55.5c30.6,15.3,61.3,44,68.9,59.3c5.7,17.2,11.5,208.6,11.5,423c0,348.3-3.8,400-36.4,463.2c-45.9,86.1-132.1,170.4-269.9,260.3C6831.6-1872.7,6762.7-1872.7,6615.4-1968.4z"/><path d="M2117.6-2092.8l-55.5-47.9l-5.7-451.7c-5.7-382.8-1.9-459.3,24.9-509.1c53.6-101.4,176.1-120.6,258.4-38.3c36.4,36.4,38.3,65.1,38.3,514.9c0,534-3.8,547.4-135.9,568.4C2186.5-2046.9,2163.5-2054.5,2117.6-2092.8z"/><path d="M7704.4-2067.9c-76.6-30.6-82.3-74.6-82.3-562.7c0-444,1.9-472.7,38.3-509.1c86.1-86.1,214.4-63.2,258.4,47.9c42.1,97.6,40.2,868.9,0,947.4C7872.8-2056.5,7800.1-2029.7,7704.4-2067.9z"/></g></g>
</svg>